<svg id="svg" xmlns="http://www.w3.org/2000/svg" xmlns:xlink="http://www.w3.org/1999/xlink" width="400" height="400" viewBox="0, 0, 400,400" version="1.1"><g id="svgg"><path id="path0" d="M90.000 34.211 C 69.809 37.377,53.856 52.655,49.081 73.400 C 48.278 76.891,48.245 78.378,48.001 122.600 C 47.783 161.970,47.665 168.473,47.135 170.200 C 44.807 177.781,40.466 181.377,31.200 183.400 C 20.348 185.769,15.400 190.970,15.400 200.008 C 15.400 209.065,20.298 214.198,31.233 216.601 C 40.475 218.631,44.836 222.237,47.120 229.735 C 47.669 231.539,47.781 237.561,48.001 277.400 C 48.245 321.625,48.278 323.109,49.081 326.600 C 53.665 346.509,67.987 360.876,87.803 365.446 C 92.063 366.429,113.560 366.717,117.304 365.842 C 134.139 361.907,135.065 339.434,118.600 334.401 C 117.683 334.121,112.820 333.777,107.200 333.594 C 90.463 333.051,85.445 330.556,82.299 321.217 L 81.418 318.600 81.180 273.000 C 80.963 231.507,80.879 227.130,80.242 224.400 C 78.898 218.639,76.705 212.811,74.159 208.232 C 69.842 200.470,69.842 199.530,74.159 191.768 C 76.705 187.189,78.898 181.361,80.242 175.600 C 80.878 172.872,80.965 168.461,81.194 127.000 C 81.466 77.742,81.363 79.973,83.583 75.630 C 87.040 68.868,91.947 66.923,106.800 66.426 C 112.640 66.230,117.684 65.876,118.600 65.597 C 134.936 60.619,134.154 38.128,117.508 34.203 C 114.194 33.422,94.997 33.427,90.000 34.211 M282.309 34.222 C 265.828 38.217,265.178 60.654,281.400 65.597 C 282.316 65.876,287.360 66.230,293.200 66.426 C 308.053 66.923,312.960 68.868,316.417 75.630 C 318.637 79.973,318.534 77.742,318.806 127.000 C 319.035 168.461,319.122 172.872,319.758 175.600 C 321.102 181.361,323.295 187.189,325.841 191.768 C 330.083 199.396,330.114 200.682,326.221 207.600 C 323.778 211.940,322.442 214.994,321.235 219.000 C 318.943 226.606,319.077 223.644,318.805 273.000 C 318.534 322.258,318.637 320.027,316.417 324.370 C 312.956 331.140,307.931 333.103,292.800 333.594 C 287.180 333.777,282.317 334.121,281.400 334.401 C 265.063 339.395,265.845 361.872,282.492 365.797 C 285.953 366.613,304.243 366.630,309.602 365.822 C 330.068 362.737,346.105 347.513,350.919 326.600 C 351.723 323.107,351.755 321.640,351.990 277.400 C 352.217 234.750,352.280 231.658,352.961 229.600 C 355.473 222.011,359.603 218.614,368.767 216.601 C 379.706 214.197,384.600 209.066,384.600 200.000 C 384.600 190.934,379.706 185.803,368.767 183.399 C 359.525 181.369,355.164 177.763,352.880 170.265 C 352.331 168.461,352.219 162.439,351.999 122.600 C 351.755 78.378,351.722 76.891,350.919 73.400 C 346.100 52.466,330.088 37.266,309.602 34.178 C 304.439 33.400,285.576 33.430,282.309 34.222 M192.687 119.247 C 125.530 125.718,94.930 206.550,141.070 255.598 C 184.533 301.799,262.565 281.700,278.411 220.222 C 292.339 166.186,247.967 113.920,192.687 119.247 M203.416 132.221 C 212.022 134.462,220.205 145.147,225.396 160.924 C 229.930 174.702,228.646 177.452,216.600 179.766 C 201.265 182.712,178.726 180.899,174.068 176.345 C 171.386 173.723,171.503 170.345,174.604 160.924 C 181.315 140.527,192.505 129.380,203.416 132.221 M165.250 144.050 C 167.051 145.851,161.257 165.124,158.189 167.537 C 153.733 171.043,144.465 164.499,145.971 158.909 C 147.169 154.460,157.097 145.193,162.400 143.574 C 163.991 143.088,164.348 143.148,165.250 144.050 M240.068 144.640 C 245.037 147.143,253.073 155.357,254.029 158.909 C 255.535 164.499,246.267 171.043,241.811 167.537 C 240.109 166.198,234.703 151.583,234.123 146.750 C 233.694 143.180,235.733 142.456,240.068 144.640 M143.711 177.645 C 151.090 181.338,155.066 184.466,155.917 187.248 C 156.258 188.362,156.834 204.016,156.968 215.800 C 157.056 223.557,152.845 224.298,141.002 218.610 C 132.704 214.625,130.732 210.297,131.335 197.400 C 132.156 179.871,135.976 173.774,143.711 177.645 M263.984 177.935 C 268.390 182.567,270.388 204.100,267.118 211.703 C 264.769 217.162,249.722 224.138,245.266 221.834 C 242.804 220.561,242.851 221.084,243.362 200.800 C 243.746 185.543,243.896 185.054,249.200 181.653 C 257.870 176.094,261.390 175.209,263.984 177.935 M181.977 192.009 C 193.959 194.106,206.041 194.106,218.023 192.009 C 229.764 189.955,231.007 191.028,230.989 203.200 C 230.951 229.473,229.154 231.052,199.400 230.964 C 170.792 230.879,169.100 229.354,169.023 203.600 C 168.986 190.975,170.144 189.939,181.977 192.009 M154.391 236.986 C 160.649 239.138,163.701 243.158,165.634 251.796 C 167.285 259.174,160.681 257.736,151.649 248.752 C 141.209 238.368,142.485 232.891,154.391 236.986 M254.800 236.400 C 256.711 238.311,254.210 242.971,248.022 249.032 C 239.042 257.828,232.730 259.105,234.366 251.796 C 236.302 243.147,239.431 239.029,245.587 237.029 C 250.887 235.308,253.528 235.128,254.800 236.400 M202.800 243.373 C 214.818 243.394,218.813 243.522,219.491 243.909 C 225.944 247.598,212.815 265.937,202.194 268.070 C 194.796 269.556,185.316 262.619,180.224 251.994 C 177.276 245.842,179.943 241.744,186.000 243.119 C 186.550 243.244,194.110 243.358,202.800 243.373 " stroke="none" fill="#040404" fill-rule="evenodd"></path><path id="path1" d="M8.000 0.600 C 7.726 0.930,7.254 1.200,6.951 1.200 C 6.258 1.200,2.000 5.455,2.000 6.148 C 2.000 6.430,1.550 7.083,1.000 7.600 L 0.000 8.539 -0.000 200.000 L -0.000 391.461 1.000 392.400 C 1.550 392.917,2.000 393.570,2.000 393.852 C 2.000 394.545,6.258 398.800,6.951 398.800 C 7.254 398.800,7.726 399.070,8.000 399.400 C 8.758 400.314,391.242 400.314,392.000 399.400 C 392.274 399.070,392.746 398.800,393.049 398.800 C 393.742 398.800,398.000 394.545,398.000 393.852 C 398.000 393.570,398.450 392.917,399.000 392.400 L 400.000 391.461 400.000 200.000 L 400.000 8.539 399.000 7.600 C 398.450 7.083,398.000 6.430,398.000 6.148 C 398.000 5.455,393.742 1.200,393.049 1.200 C 392.746 1.200,392.274 0.930,392.000 0.600 C 391.242 -0.314,8.758 -0.314,8.000 0.600 M117.508 34.203 C 134.154 38.128,134.936 60.619,118.600 65.597 C 117.684 65.876,112.640 66.230,106.800 66.426 C 91.947 66.923,87.040 68.868,83.583 75.630 C 81.363 79.973,81.466 77.742,81.194 127.000 C 80.965 168.461,80.878 172.872,80.242 175.600 C 78.898 181.361,76.705 187.189,74.159 191.768 C 69.842 199.530,69.842 200.470,74.159 208.232 C 76.705 212.811,78.898 218.639,80.242 224.400 C 80.879 227.130,80.963 231.507,81.180 273.000 L 81.418 318.600 82.299 321.217 C 85.445 330.556,90.463 333.051,107.200 333.594 C 112.820 333.777,117.683 334.121,118.600 334.401 C 135.065 339.434,134.139 361.907,117.304 365.842 C 113.560 366.717,92.063 366.429,87.803 365.446 C 67.987 360.876,53.665 346.509,49.081 326.600 C 48.278 323.109,48.245 321.625,48.001 277.400 C 47.781 237.561,47.669 231.539,47.120 229.735 C 44.836 222.237,40.475 218.631,31.233 216.601 C 20.298 214.198,15.400 209.065,15.400 200.008 C 15.400 190.970,20.348 185.769,31.200 183.400 C 40.466 181.377,44.807 177.781,47.135 170.200 C 47.665 168.473,47.783 161.970,48.001 122.600 C 48.245 78.378,48.278 76.891,49.081 73.400 C 53.856 52.655,69.809 37.377,90.000 34.211 C 94.997 33.427,114.194 33.422,117.508 34.203 M309.602 34.178 C 330.088 37.266,346.100 52.466,350.919 73.400 C 351.722 76.891,351.755 78.378,351.999 122.600 C 352.219 162.439,352.331 168.461,352.880 170.265 C 355.164 177.763,359.525 181.369,368.767 183.399 C 379.706 185.803,384.600 190.934,384.600 200.000 C 384.600 209.066,379.706 214.197,368.767 216.601 C 359.603 218.614,355.473 222.011,352.961 229.600 C 352.280 231.658,352.217 234.750,351.990 277.400 C 351.755 321.640,351.723 323.107,350.919 326.600 C 346.105 347.513,330.068 362.737,309.602 365.822 C 304.243 366.630,285.953 366.613,282.492 365.797 C 265.845 361.872,265.063 339.395,281.400 334.401 C 282.317 334.121,287.180 333.777,292.800 333.594 C 307.931 333.103,312.956 331.140,316.417 324.370 C 318.637 320.027,318.534 322.258,318.805 273.000 C 319.077 223.644,318.943 226.606,321.235 219.000 C 322.442 214.994,323.778 211.940,326.221 207.600 C 330.114 200.682,330.083 199.396,325.841 191.768 C 323.295 187.189,321.102 181.361,319.758 175.600 C 319.122 172.872,319.035 168.461,318.806 127.000 C 318.534 77.742,318.637 79.973,316.417 75.630 C 312.960 68.868,308.053 66.923,293.200 66.426 C 287.360 66.230,282.316 65.876,281.400 65.597 C 265.178 60.654,265.828 38.217,282.309 34.222 C 285.576 33.430,304.439 33.400,309.602 34.178 M206.600 119.214 C 274.410 125.588,305.358 206.244,258.930 255.598 C 215.467 301.799,137.435 281.700,121.589 220.222 C 107.741 166.499,151.868 114.069,206.600 119.214 M196.410 132.241 C 187.929 134.520,179.753 145.274,174.604 160.924 C 170.070 174.702,171.354 177.452,183.400 179.766 C 198.735 182.712,221.274 180.899,225.932 176.345 C 228.614 173.723,228.497 170.345,225.396 160.924 C 218.663 140.463,207.376 129.294,196.410 132.241 M162.400 143.574 C 157.097 145.193,147.169 154.460,145.971 158.909 C 144.465 164.499,153.733 171.043,158.189 167.537 C 159.663 166.378,160.193 165.172,163.075 156.428 C 166.932 144.726,166.801 142.231,162.400 143.574 M234.776 144.024 C 232.952 145.848,238.711 165.099,241.811 167.537 C 246.267 171.043,255.535 164.499,254.029 158.909 C 252.285 152.430,237.670 141.130,234.776 144.024 M136.016 177.935 C 131.610 182.567,129.612 204.100,132.882 211.703 C 133.990 214.278,136.593 216.493,141.002 218.610 C 152.845 224.298,157.056 223.557,156.968 215.800 C 156.834 204.016,156.258 188.362,155.917 187.248 C 155.296 185.218,153.077 183.019,149.451 180.843 C 141.013 175.776,138.572 175.248,136.016 177.935 M255.000 178.329 C 243.589 184.394,243.785 184.017,243.362 200.800 C 242.851 221.084,242.804 220.561,245.266 221.834 C 249.722 224.138,264.769 217.162,267.118 211.703 C 270.388 204.100,268.390 182.567,263.984 177.935 C 261.835 175.676,259.826 175.763,255.000 178.329 M171.676 192.010 C 168.947 193.674,168.077 203.324,169.550 215.600 C 171.232 229.613,173.707 230.887,199.400 230.964 C 229.154 231.052,230.951 229.473,230.989 203.200 C 231.007 191.028,229.764 189.955,218.023 192.009 C 206.041 194.106,193.959 194.106,181.977 192.009 C 176.021 190.967,173.387 190.967,171.676 192.010 M145.254 236.346 C 141.373 240.227,159.757 259.099,164.794 256.403 C 167.803 254.793,163.456 242.034,158.863 238.994 C 154.863 236.347,146.818 234.782,145.254 236.346 M249.400 235.872 C 240.355 237.895,236.583 241.891,234.366 251.796 C 232.730 259.105,239.042 257.828,248.022 249.032 C 257.267 239.977,257.896 233.971,249.400 235.872 M183.200 243.165 C 178.485 243.878,177.597 246.512,180.224 251.994 C 185.316 262.619,194.796 269.556,202.194 268.070 C 212.815 265.937,225.944 247.598,219.491 243.909 C 218.813 243.522,214.818 243.394,202.800 243.373 C 194.110 243.358,186.550 243.244,186.000 243.119 C 185.450 242.994,184.190 243.015,183.200 243.165 " stroke="none" fill="#fbfbfb" fill-rule="evenodd"></path></g></svg>