<svg id="svg" xmlns="http://www.w3.org/2000/svg" xmlns:xlink="http://www.w3.org/1999/xlink" width="400" height="400" viewBox="0, 0, 400,400"><g id="svgg"><path id="path0" d="M90.608 33.646 C 72.310 36.310,56.985 48.860,50.610 66.400 C 47.709 74.384,47.867 71.353,47.621 123.600 L 47.400 170.600 46.126 173.289 C 43.209 179.448,37.294 183.200,30.503 183.200 C 21.824 183.200,14.400 190.946,14.400 200.000 C 14.400 209.054,21.824 216.800,30.503 216.800 C 37.294 216.800,43.209 220.552,46.126 226.711 L 47.400 229.400 47.621 276.400 C 47.837 322.258,47.863 323.487,48.679 327.000 C 53.285 346.824,67.567 361.127,87.470 365.847 C 92.236 366.977,115.975 367.128,119.523 366.051 C 135.018 361.345,135.130 338.764,119.683 333.993 C 117.410 333.291,115.955 333.200,106.978 333.200 C 93.304 333.200,90.439 332.456,85.989 327.751 C 81.070 322.550,81.217 324.272,81.208 271.952 C 81.199 224.356,81.233 225.171,78.962 217.932 C 77.190 212.287,73.391 205.323,69.934 201.387 L 68.717 200.000 69.934 198.613 C 73.391 194.677,77.190 187.713,78.962 182.068 C 81.233 174.829,81.199 175.644,81.208 128.048 C 81.213 100.765,81.368 83.147,81.619 81.412 C 82.458 75.608,85.993 70.845,91.308 68.358 L 94.200 67.004 106.400 66.787 C 117.580 66.588,118.775 66.499,120.688 65.728 C 135.222 59.868,134.548 38.584,119.683 33.993 C 116.876 33.126,95.898 32.876,90.608 33.646 M279.989 34.092 C 265.348 39.187,264.904 59.919,279.312 65.728 C 281.225 66.499,282.420 66.588,293.600 66.787 L 305.800 67.004 308.692 68.358 C 313.110 70.425,316.471 74.252,318.039 79.000 C 318.459 80.273,318.612 90.250,318.791 127.800 L 319.014 175.000 320.067 178.834 C 322.119 186.303,325.171 192.517,329.319 197.668 L 331.238 200.051 330.043 201.412 C 326.748 205.164,323.144 211.735,321.205 217.521 C 318.759 224.821,318.801 223.888,318.792 271.952 C 318.783 324.272,318.930 322.550,314.011 327.751 C 309.561 332.456,306.696 333.200,293.022 333.200 C 284.045 333.200,282.590 333.291,280.317 333.993 C 264.870 338.764,264.982 361.345,280.477 366.051 C 284.025 367.128,307.764 366.977,312.530 365.847 C 332.507 361.109,346.678 346.917,351.319 327.000 C 352.138 323.484,352.163 322.305,352.379 276.379 L 352.600 229.358 354.106 226.310 C 357.040 220.374,362.825 216.800,369.497 216.800 C 378.176 216.800,385.600 209.054,385.600 200.000 C 385.600 190.946,378.176 183.200,369.497 183.200 C 362.706 183.200,356.791 179.448,353.874 173.289 L 352.600 170.600 352.379 123.600 C 352.163 77.695,352.138 76.516,351.319 73.000 C 346.676 53.071,332.528 38.902,312.530 34.152 C 307.534 32.965,283.356 32.921,279.989 34.092 M190.800 118.821 C 123.462 127.181,94.454 208.128,141.376 256.740 C 192.150 309.345,281.305 273.209,281.368 200.000 C 281.409 151.261,238.597 112.887,190.800 118.821 M206.252 133.387 C 215.300 137.858,223.731 152.623,227.814 171.144 C 229.097 176.965,229.555 176.315,223.027 177.937 C 207.482 181.801,190.984 181.692,175.825 177.625 C 170.522 176.202,170.916 176.908,172.192 171.120 C 178.443 142.759,192.872 126.774,206.252 133.387 M167.396 144.541 C 164.189 151.004,161.050 159.938,159.547 166.880 L 158.621 171.160 155.151 169.330 C 151.301 167.301,143.939 162.418,143.715 161.746 C 143.188 160.163,154.034 148.834,160.321 144.400 C 163.566 142.112,170.025 138.291,170.256 138.523 C 170.303 138.569,169.016 141.277,167.396 144.541 M239.579 144.324 C 245.988 148.863,256.815 160.154,256.285 161.746 C 256.061 162.418,248.699 167.301,244.849 169.330 L 241.379 171.160 240.454 166.880 C 238.974 160.039,235.852 151.150,232.702 144.810 C 231.114 141.614,229.743 138.840,229.656 138.644 C 229.349 137.960,235.834 141.672,239.579 144.324 M139.600 175.409 C 142.504 177.476,149.446 181.554,152.929 183.239 L 156.153 184.798 156.182 199.099 C 156.205 210.740,156.348 214.389,156.953 218.719 C 157.361 221.645,157.611 224.122,157.509 224.225 C 156.575 225.158,133.514 215.248,133.043 213.711 C 131.787 209.619,131.386 195.693,132.354 189.800 C 133.487 182.907,136.474 173.371,137.345 173.868 C 137.595 174.010,138.610 174.704,139.600 175.409 M265.580 180.799 C 268.506 190.649,269.169 206.505,266.957 213.711 C 266.486 215.248,243.425 225.158,242.491 224.225 C 242.389 224.122,242.638 221.645,243.044 218.719 C 243.645 214.399,243.789 210.714,243.811 199.101 L 243.838 184.802 247.019 183.261 C 250.668 181.493,258.061 177.126,260.996 175.006 L 262.993 173.563 263.722 175.281 C 264.123 176.225,264.959 178.709,265.580 180.799 M174.366 190.991 C 190.161 194.995,209.795 194.976,225.921 190.941 C 228.188 190.374,230.168 190.036,230.321 190.189 C 230.790 190.660,230.588 211.153,230.075 215.200 C 228.330 228.969,228.808 228.143,222.000 229.159 C 207.126 231.377,192.874 231.377,178.000 229.159 C 171.802 228.234,171.902 228.306,171.233 224.305 C 169.157 211.883,168.403 190.000,170.052 190.000 C 170.274 190.000,172.215 190.446,174.366 190.991 M150.200 235.993 C 153.280 237.028,156.976 238.189,158.413 238.573 L 161.026 239.272 162.785 244.492 C 163.752 247.363,165.848 252.340,167.442 255.552 C 169.036 258.764,170.303 261.431,170.256 261.477 C 170.210 261.524,168.785 260.805,167.090 259.881 C 156.461 254.084,146.887 244.687,140.636 233.917 L 139.543 232.033 142.072 233.072 C 143.462 233.644,147.120 234.958,150.200 235.993 M259.254 234.100 C 253.368 244.301,243.159 254.291,232.910 259.881 C 231.215 260.805,229.790 261.524,229.744 261.477 C 229.697 261.431,230.964 258.764,232.558 255.552 C 234.152 252.340,236.248 247.363,237.215 244.492 L 238.974 239.272 241.587 238.573 C 245.009 237.659,256.102 233.890,258.400 232.862 C 259.390 232.419,260.260 232.044,260.333 232.028 C 260.406 232.013,259.921 232.945,259.254 234.100 M181.200 243.030 C 191.233 244.387,214.553 244.115,222.359 242.549 C 224.122 242.195,223.975 242.894,221.003 249.000 C 208.530 274.627,191.470 274.627,178.997 249.000 C 177.082 245.065,176.053 242.393,176.457 242.404 C 176.535 242.406,178.670 242.687,181.200 243.030 " stroke="none" fill="#000000" fill-rule="evenodd"></path></g></svg>